<?xml version="1.0" standalone="no"?>
<svg xmlns="http://www.w3.org/2000/svg" viewBox="0 0 68.664 36" width="68.664" height="36"><g fill="#ff8686" color="#ff8686" transform="translate(0 4) scale(0.5833334)"><svg width="48.0" height="48.0" x="0.0" y="0.0" viewBox="0 0 48 48"><path fill="currentColor" fill-rule="nonzero" d="M24 .21L.21 24 24 47.79 47.79 24 24 .21zM5.82 24L24 5.82l7.69 7.69-2.8 2.8L24 11.43 11.43 24l4.88 4.89-2.8 2.8L5.82 24zm25.15 0L24 30.97 17.03 24 24 17.03 30.97 24zM16.31 34.49l2.8-2.8L24 36.57 36.57 24l-4.89-4.89 2.8-2.8 7.7 7.69L24 42.18l-7.69-7.69z"></path></svg></g><path fill="#fe0b01" fill-rule="nonzero" d="M5.30 21Q2.50 21 1.25 19.61Q0 18.22 0 15.12L0 15.12L0 13.10L4.06 13.10L4.06 15.67Q4.06 17.21 5.04 17.21L5.04 17.21Q5.59 17.21 5.81 16.88Q6.02 16.56 6.02 15.79L6.02 15.79Q6.02 14.78 5.78 14.12Q5.54 13.46 5.17 13.02Q4.80 12.58 3.84 11.64L3.84 11.64L2.06 9.86Q0 7.85 0 5.40L0 5.40Q0 2.76 1.21 1.38Q2.42 0 4.75 0L4.75 0Q7.54 0 8.76 1.48Q9.98 2.95 9.98 6.10L9.98 6.10L5.78 6.10L5.76 4.68Q5.76 4.27 5.53 4.03Q5.30 3.79 4.90 3.79L4.90 3.79Q4.42 3.79 4.18 4.06Q3.94 4.32 3.94 4.78L3.94 4.78Q3.94 5.78 5.09 6.86L5.09 6.86L7.49 9.17Q8.33 9.98 8.88 10.72Q9.43 11.45 9.77 12.44Q10.10 13.44 10.10 14.81L10.10 14.81Q10.10 17.86 8.99 19.43Q7.87 21 5.30 21L5.30 21ZM16.06 21Q14.64 21 13.49 20.45Q12.34 19.90 11.68 18.83Q11.02 17.76 11.02 16.25L11.02 16.25L11.02 11.09L15.07 11.09L15.07 16.01Q15.07 16.56 15.30 16.88Q15.53 17.21 16.01 17.21L16.01 17.21Q16.46 17.21 16.69 16.91Q16.92 16.61 16.92 16.06L16.92 16.06L16.92 0.19L21.07 0.19L21.07 15.65Q21.07 17.26 20.44 18.47Q19.80 19.68 18.66 20.34Q17.52 21 16.06 21L16.06 21ZM27.46 21Q25.20 21 23.84 19.58Q22.49 18.17 22.49 15.70L22.49 15.70L22.49 6.19Q22.49 3.12 23.71 1.56Q24.94 0 27.55 0L27.55 0Q29.83 0 31.22 1.25Q32.62 2.50 32.62 4.85L32.62 4.85L32.62 8.40L28.51 8.40L28.51 5.35Q28.51 4.46 28.30 4.13Q28.08 3.79 27.55 3.79L27.55 3.79Q27 3.79 26.80 4.18Q26.59 4.56 26.59 5.30L26.59 5.30L26.59 15.65Q26.59 16.46 26.83 16.84Q27.07 17.21 27.55 17.21L27.55 17.21Q28.51 17.21 28.51 15.65L28.51 15.65L28.51 11.93L32.66 11.93L32.66 15.82Q32.66 21 27.46 21L27.46 21Z" transform="translate(36, 7.5)"></path></svg>